# AST/ASF file generated using VICON BodyLanguage
# -----------------------------------------------
:version 1.10
:name VICON
:units
  mass 1.0
  length 0.45
  angle deg
:documentation
   .ast/.asf automatically generated from VICON data using
   VICON BodyBuilder and BodyLanguage model FoxedUp or BRILLIANT.MOD
:root
   order TX TY TZ RX RY RZ
   axis XYZ
   position 0 0 0  
   orientation 0 0 0 
:bonedata
  begin
     id 1 
     name lhipjoint
     direction 0.645893 -0.654526 0.392961 
     length 2.38111 
     axis 0 0 0  XYZ
  end
  begin
     id 2 
     name lfemur
     direction 0.34202 -0.939693 0  
     length 6.6822  
     axis 0 0 20  XYZ
    dof rx ry rz
    limits (-160.0 20.0)
           (-70.0 70.0)
           (-60.0 70.0)
  end
  begin
     id 3 
     name ltibia
     direction 0.34202 -0.939693 0   
     length 6.93904   
     axis 0 0 20   XYZ
    dof rx
    limits (-10.0 170.0)
  end
  begin
     id 4 
     name lfoot
     direction 0.0694967 -0.190941 0.979138   
     length 2.13616   
     axis -90 7.62852e-016 20   XYZ
    dof rx rz
    limits (-45.0 90.0)
           (-70.0 20.0)
  end
  begin
     id 5 
     name ltoes
     direction 1.535e-011 -4.2202e-011 1   
     length 1.07536   
     axis -90 7.62852e-016 20   XYZ
    dof rx
    limits (-90.0 20.0)
  end
  begin
     id 6 
     name rhipjoint
     direction -0.700219 -0.612087 0.367481   
     length 2.54621  
     axis 0 0 0  XYZ 
  end
  begin
     id 7 
     name rfemur
     direction -0.34202 -0.939693 0   
     length 6.55353   
     axis 0 0 -20   XYZ
    dof rx ry rz
    limits (-160.0 20.0)
           (-70.0 70.0)
           (-70.0 60.0)
  end
  begin
     id 8 
     name rtibia
     direction -0.34202 -0.939693 0   
     length 6.8736   
     axis 0 0 -20   XYZ
    dof rx
    limits (-10.0 170.0)
 end
 begin
     id 9 
     name rfoot
     direction -0.0679995 -0.186827 0.980037   
     length 2.1218  
     axis -90 -7.62852e-016 -20   XYZ
    dof rx rz
    limits (-45.0 90.0)
           (-20.0 70.0)
  end
  begin
     id 10 
     name rtoes
     direction -1.53589e-011 -4.21772e-011 1   
     length 1.06864   
     axis -90 -7.62852e-016 -20   XYZ
    dof rx
    limits (-90.0 20.0)
  end
  begin
     id 11 
     name lowerback
     direction -0.0416607 0.996347 -0.0745409   
     length 2.12205   
     axis 0 0 0   XYZ
    dof rx ry rz
    limits (-20.0 45.0)
           (-30.0 30.0)
           (-30.0 30.0)
  end
  begin
     id 12 
     name upperback
     direction -0.000153993 0.999276 -0.0380568   
     length 2.12759   
     axis 0 0 0   XYZ
    dof rx ry rz
    limits (-20.0 45.0)
           (-30.0 30.0)
           (-30.0 30.0)
  end
  begin
     id 13 
     name thorax
     direction 0.0187671 0.999821 -0.00241421   
     length 2.13704   
     axis 0 0 0   XYZ
    dof rx ry rz
    limits (-20.0 45.0)
           (-30.0 30.0)
           (-30.0 30.0)
  end
  begin
     id 14 
     name lowerneck
     direction 0.0268157 0.964865 0.261374   
     length 1.65253   
     axis 0 0 0   XYZ
    dof rx ry rz
    limits (-20.0 45.0)
           (-30.0 30.0)
           (-30.0 30.0)
  end
  begin
     id 15 
     name upperneck
     direction 0.00263774 0.939908 -0.341418   
     length 1.72375   
     axis 0 0 0   XYZ
    dof rx ry rz
    limits (-20.0 45.0)
           (-30.0 30.0)
           (-30.0 30.0)
  end
  begin
     id 16
     name head
     direction -0.00526001 0.989001 -0.147818  
     length 1.74878  
     axis 0 0 0   XYZ
    dof rx ry rz
    limits (-20.0 45.0)
           (-30.0 30.0)
           (-30.0 30.0)
  end
  begin
     id 17 
     name lclavicle
     direction 0.881214 0.461162 -0.103884  
     length 3.25108  
     axis 0 0 0   XYZ
    dof ry rz
    limits (-20.0 10.0)
           (0.0 20.0)
  end
  begin
     id 18 
     name lhumerus
     direction 1 -4.4899e-011 3.38092e-027   
     length 4.87408   
     axis 180 -30 -90   XYZ
    dof rx ry rz
    limits (-60.0 90.0)
           (-90.0 90.0)
           (-90.0 90.0)
  end
  begin
     id 19
     name lradius
     direction 1 -4.48931e-011 9.96288e-027   
     length 2.76729   
     axis 180 -30 -90   XYZ
    dof rx
    limits (-10.0 170.0)
  end
  begin
     id 20
     name lwrist
     direction 1 -4.4896e-011 1.50617e-026   
     length 1.38364   
     axis -9.31234e-015 90 90   XYZ
    dof ry
    limits (-180.0 0.0)
 end
  begin
     id 21 
     name lhand
     direction 1 -4.49038e-011 3.01286e-026   
     length 0.98922   
     axis -1.92217e-014 90 90   XYZ
    dof rx rz
    limits (-90.0 90.0)
           (-45.0 45.0)
  end
  begin
     id 22 
     name lfingers
     direction 1 -4.49051e-011 6.02588e-026   
     length 0.797535   
     axis -3.84436e-014 90 90   XYZ
    dof rx
    limits (0.0 90.0)
  end
  begin
     id 23
     name lthumb
     direction 0.707107 -6.34901e-011 0.707107   
     length 1.14511   
     axis -90 45 2.19363e-014   XYZ
    dof rx rz
    limits (-45.0 45.0)
           (-45.0 45.0)
  end
  begin
     id 24 
     name rclavicle
     direction -0.893894 0.441652 -0.0767889   
     length 3.29361  
     axis 0 0 0   XYZ 
    dof ry rz
    limits (-10.0 20.0)
           (-20.0 0.0)
  end
  begin
     id 25 
     name rhumerus
     direction -1 -4.48945e-011 8.0491e-028  
     length 4.71404   
     axis 180 30 90   XYZ
    dof rx ry rz
    limits (-90.0 60.0)
           (-90.0 90.0)
           (-90.0 90.0)
  end
  begin
     id 26 
     name rradius
     direction -1 -4.48986e-011 9.27795e-027   
     length 2.83468   
     axis 180 30 90   XYZ
    dof rx
    limits (-10.0 170.0)
  end
  begin
     id 27 
     name rwrist
     direction -1 -4.49029e-011 1.5064e-026   
     length 1.41734   
     axis -9.31234e-015 -90 -90   XYZ
    dof ry
    limits (-180.0 0.0)
  end
  begin
     id 28
     name rhand
     direction -1 -4.48857e-011 3.01165e-026   
     length 0.868195   
     axis -1.92217e-014 -90 -90   XYZ
    dof rx rz
    limits (-90.0 90.0)
           (-45.0 45.0)
  end
  begin
     id 29
     name rfingers
     direction -1 -4.49048e-011 6.02585e-026   
     length 0.699961   
     axis -3.84436e-014 -90 -90   XYZ
    dof rx
    limits (0.0 90.0)
  end
  begin
     id 30
     name rthumb
     direction -0.707107 -6.34854e-011 0.707107   
     length 1.00501   
     axis -90 -45 -2.19363e-014   XYZ
    dof rx rz
    limits (-45.0 45.0)
           (-45.0 45.0)
  end
:hierarchy
  begin
    root lhipjoint rhipjoint lowerback
    lhipjoint lfemur
    lfemur ltibia
    ltibia lfoot
    lfoot ltoes
    rhipjoint rfemur
    rfemur rtibia
    rtibia rfoot
    rfoot rtoes
    lowerback upperback
    upperback thorax
    thorax lowerneck lclavicle rclavicle
    lowerneck upperneck
    upperneck head
    lclavicle lhumerus
    lhumerus lradius
    lradius lwrist
    lwrist lhand lthumb
    lhand lfingers
    rclavicle rhumerus
    rhumerus rradius
    rradius rwrist
    rwrist rhand rthumb
    rhand rfingers
  end

#!OML:ASF H:\ManfredObstacles\Project 1\Capture day 2\Session 1\male.ASF
:FULLY-SPECIFIED
:DEGREES
146
root 2.07366 16.0917 3.51592 -176.706 -5.52176 177.835
lowerback -8.38731 0.134561 -4.02812
upperback 0.104552 0.552937 -0.384908
thorax 4.78372 0.164057 1.93191
lowerneck -35.064 -0.906862 -1.02599
upperneck 39.9542 -3.69846 1.41733
head 22.7273 -1.93071 -0.390561
rclavicle 1.33131e-015 -1.2921e-015
rhumerus -43.8628 -31.3557 -61.8389
rradius 19.351
rwrist 48.1928
rhand 0.0858798 -8.30425
rfingers 7.12502
rthumb 25.6726 -36.5932
lclavicle 1.33131e-015 -1.2921e-015
lhumerus -33.0203 22.5315 72.6619
lradius 21.3846
lwrist -50.8917
lhand -0.429829 7.51897
lfingers 7.12502
lthumb 25.1786 35.8782
rfemur -11.4623 3.99107 22.4232
rtibia 36.7724
rfoot -7.90773 -20.0581
rtoes -21.5296
lfemur -14.1085 -8.29205 -23.2404
ltibia 34.2411
lfoot -1.51569 13.6057
ltoes -10.3201
147
root 2.05659 16.0768 3.51092 -176.552 -5.57914 177.817
lowerback -8.37528 0.171564 -4.0568
upperback 0.114414 0.60589 -0.418341
thorax 4.78404 0.189593 1.91959
lowerneck -35.2958 -0.982361 -1.12918
upperneck 39.5957 -3.8316 1.58667
head 23.2525 -1.95863 -0.343283
rclavicle 1.00452e-014 -1.93815e-015
rhumerus -44.2511 -32.1712 -60.8895
rradius 18.933
rwrist 49.4377
rhand 0.16309 -8.31562
rfingers 7.12502
rthumb 25.7466 -36.5938
lclavicle 1.00452e-014 -1.93815e-015
lhumerus -31.9095 19.5693 74.9283
lradius 23.1727
lwrist -47.7165
lhand -0.647999 7.4534
lfingers 7.12502
lthumb 24.9696 35.8419
rfemur -11.4338 4.01118 22.3812
rtibia 36.6018
rfoot -8.46773 -20.3275
rtoes -21.0858
lfemur -14.1807 -8.1895 -23.2714
ltibia 34.1599
lfoot -1.88679 13.6006
ltoes -10.8762
148
root 2.03963 16.0593 3.50667 -176.405 -5.61671 177.793
lowerback -8.35298 0.207026 -4.09205
upperback 0.118739 0.656625 -0.453333
thorax 4.77287 0.214112 1.90891
lowerneck -35.4085 -1.03329 -1.21213
upperneck 39.6224 -3.9478 1.75756
head 23.3306 -1.98418 -0.269506
rclavicle 1.63602e-014 -2.48481e-015
rhumerus -44.595 -32.8364 -60.0747
rradius 18.6088
rwrist 50.5026
rhand 0.203923 -8.31016
rfingers 7.12502
rthumb 25.7857 -36.5827
lclavicle 1.63602e-014 -2.48481e-015
lhumerus -31.0392 16.9169 76.837
lradius 25.0396
lwrist -44.9704
lhand -0.89799 7.40524
lfingers 7.12502
lthumb 24.73 35.8268
rfemur -11.401 4.02213 22.3294
rtibia 36.4402
rfoot -9.09669 -20.5716
rtoes -20.6325
lfemur -14.2466 -8.08008 -23.3103
ltibia 34.0827
lfoot -2.2835 13.621
ltoes -11.4212
149
root 2.02302 16.0395 3.50377 -176.248 -5.63796 177.751
lowerback -8.32935 0.237289 -4.1448
upperback 0.119857 0.701843 -0.492843
thorax 4.7578 0.235523 1.90262
lowerneck -35.5404 -1.07436 -1.27742
upperneck 39.6412 -4.05124 1.9197
head 23.4082 -2.00239 -0.199497
rclavicle 9.16914e-015 9.24349e-015
rhumerus -44.8651 -33.3486 -59.4254
rradius 18.3789
rwrist 51.3847
rhand 0.226516 -8.29603
rfingers 7.12502
rthumb 25.8073 -36.5654
lclavicle 9.16914e-015 9.24349e-015
lhumerus -30.3301 14.5335 78.4678
lradius 26.9697
lwrist -42.6005
lhand -1.16803 7.37823
lfingers 7.12502
lthumb 24.4711 35.835
rfemur -11.3783 4.03249 22.2585
rtibia 36.2817
rfoot -9.77788 -20.8016
rtoes -20.1857
lfemur -14.3326 -7.95936 -23.3657
ltibia 34.0176
lfoot -2.69417 13.6602
ltoes -11.9196
150
root 2.00659 16.0178 3.50236 -176.085 -5.6338 177.709
lowerback -8.30227 0.265573 -4.19386
upperback 0.116895 0.743635 -0.534285
thorax 4.73679 0.255459 1.89173
lowerneck -35.67 -1.10532 -1.33103
upperneck 39.6583 -4.14066 2.07088
head 23.4828 -2.01555 -0.133276
rclavicle -1.91718e-015 6.65929e-015
rhumerus -45.0299 -33.6719 -58.9905
rradius 18.2456
rwrist 51.9912
rhand 0.240572 -8.29109
rfingers 7.12502
rthumb 25.8208 -36.5585
lclavicle -1.91718e-015 6.65929e-015
lhumerus -29.7325 12.4193 79.8584
lradius 28.9121
lwrist -40.5863
lhand -1.491 7.34759
lfingers 7.12502
lthumb 24.1615 35.8459
rfemur -11.366 4.04983 22.1821
rtibia 36.1161
rfoot -10.5015 -21.0083
rtoes -19.7113
lfemur -14.4448 -7.8148 -23.4222
ltibia 33.9751
lfoot -3.11654 13.7202
ltoes -12.3342
